<svg width="231" height="58" viewBox="0 0 231 58" fill="none" xmlns="http://www.w3.org/2000/svg">
<path d="M27.888 18.92C28.72 20.616 29.136 22.504 29.136 24.584C29.136 26.664 28.72 28.552 27.888 30.248C27.056 31.912 25.984 33.24 24.672 34.232C22.016 36.28 19.264 37.304 16.416 37.304H10.416V42.728C10.416 43.464 10.384 44.024 10.32 44.408C10.288 44.76 10.144 45.176 9.888 45.656C9.44 46.52 8.192 46.952 6.144 46.952C3.904 46.952 2.592 46.36 2.208 45.176C2.016 44.632 1.92 43.8 1.92 42.68V16.04C1.92 15.304 1.936 14.76 1.968 14.408C2.032 14.024 2.192 13.592 2.448 13.112C2.896 12.248 4.144 11.816 6.192 11.816H16.464C19.28 11.816 22.016 12.84 24.672 14.888C25.984 15.88 27.056 17.224 27.888 18.92ZM16.464 28.808C17.424 28.808 18.368 28.456 19.296 27.752C20.224 27.048 20.688 25.992 20.688 24.584C20.688 23.176 20.224 22.12 19.296 21.416C18.368 20.68 17.408 20.312 16.416 20.312H10.416V28.808H16.464ZM31.5026 44.744C30.8946 44.36 30.5906 43.752 30.5906 42.92C30.5906 42.088 31.1986 40.824 32.4146 39.128C32.7666 38.584 33.3266 38.312 34.0946 38.312C34.8946 38.312 35.9666 38.712 37.3106 39.512C38.6546 40.28 39.8706 40.664 40.9586 40.664C42.9106 40.664 43.8866 40.28 43.8866 39.512C43.8866 38.904 42.8146 38.456 40.6706 38.168C38.6546 37.88 36.6546 37.128 34.6706 35.912C33.7426 35.336 32.9746 34.44 32.3666 33.224C31.7586 31.976 31.4546 30.504 31.4546 28.808C31.4546 23.752 34.9266 21.224 41.8706 21.224C44.1426 21.224 46.4786 21.768 48.8786 22.856C49.9986 23.368 50.5586 24.008 50.5586 24.776C50.5586 25.544 50.2066 26.488 49.5026 27.608C48.7986 28.728 48.0786 29.288 47.3426 29.288C46.9586 29.288 46.2386 29.048 45.1826 28.568C44.1586 28.088 43.0386 27.848 41.8226 27.848C39.9346 27.848 38.9906 28.2 38.9906 28.904C38.9906 29.864 40.0786 30.488 42.2546 30.776C44.3666 31 46.4146 31.608 48.3986 32.6C49.3266 33.048 50.0946 33.832 50.7026 34.952C51.3426 36.04 51.6626 37.416 51.6626 39.08C51.6626 40.744 51.3426 42.168 50.7026 43.352C50.0946 44.504 49.2306 45.368 48.1106 45.944C46.0626 46.936 43.4866 47.432 40.3826 47.432C37.3106 47.432 34.3506 46.536 31.5026 44.744ZM54.795 25.928C54.795 25.192 54.811 24.648 54.843 24.296C54.907 23.912 55.051 23.48 55.275 23C55.723 22.168 56.971 21.752 59.019 21.752C60.555 21.752 61.643 22.024 62.283 22.568C62.827 23.016 63.115 23.704 63.147 24.632C63.179 24.952 63.195 25.416 63.195 26.024V42.824C63.195 43.56 63.163 44.12 63.099 44.504C63.067 44.856 62.923 45.272 62.667 45.752C62.251 46.584 61.019 47 58.971 47C56.955 47 55.723 46.568 55.275 45.704C55.051 45.224 54.907 44.808 54.843 44.456C54.811 44.104 54.795 43.544 54.795 42.776V25.928ZM62.667 17.048C62.443 17.496 62.027 17.816 61.419 18.008C60.811 18.2 59.995 18.296 58.971 18.296C57.979 18.296 57.179 18.2 56.571 18.008C55.963 17.816 55.531 17.48 55.275 17C55.051 16.52 54.907 16.104 54.843 15.752C54.811 15.368 54.795 14.808 54.795 14.072C54.795 13.336 54.811 12.792 54.843 12.44C54.907 12.056 55.051 11.64 55.275 11.192C55.723 10.328 56.971 9.896 59.019 9.896C61.035 9.896 62.251 10.328 62.667 11.192C62.923 11.672 63.067 12.104 63.099 12.488C63.163 12.84 63.195 13.384 63.195 14.12C63.195 14.856 63.163 15.416 63.099 15.8C63.067 16.152 62.923 16.568 62.667 17.048ZM74.9494 34.376C74.9494 35.72 75.3974 36.776 76.2934 37.544C77.1894 38.28 78.1334 38.648 79.1254 38.648C80.1494 38.648 81.0934 38.36 81.9574 37.784C82.8534 37.176 83.5734 36.872 84.1174 36.872C85.0774 36.872 86.2454 37.72 87.6214 39.416C88.3574 40.344 88.7254 41.176 88.7254 41.912C88.7254 43.128 87.8454 44.264 86.0854 45.32C84.2614 46.6 82.0214 47.24 79.3654 47.24C76.3894 47.24 73.5254 46.168 70.7734 44.024C69.4614 43 68.3894 41.64 67.5574 39.944C66.7254 38.216 66.3094 36.328 66.3094 34.28C66.3094 32.2 66.7254 30.328 67.5574 28.664C68.3894 26.968 69.4614 25.608 70.7734 24.584C73.4294 22.472 76.2614 21.416 79.2694 21.416C80.4854 21.416 81.6694 21.592 82.8214 21.944C83.9734 22.264 84.8214 22.584 85.3654 22.904L86.1334 23.384C86.7094 23.768 87.1574 24.072 87.4774 24.296C88.3094 24.936 88.7254 25.672 88.7254 26.504C88.7254 27.304 88.3894 28.216 87.7174 29.24C86.5654 31 85.4614 31.88 84.4054 31.88C83.7974 31.88 82.9334 31.528 81.8134 30.824C81.2374 30.28 80.4054 30.008 79.3174 30.008C78.2614 30.008 77.2694 30.392 76.3414 31.16C75.4134 31.928 74.9494 33 74.9494 34.376ZM91.1063 34.376C91.1063 30.536 92.4503 27.368 95.1383 24.872C97.8263 22.376 100.898 21.128 104.354 21.128C107.81 21.128 110.866 22.376 113.522 24.872C116.178 27.336 117.506 30.488 117.506 34.328C117.506 36.984 116.818 39.352 115.442 41.432C114.066 43.48 112.386 45 110.402 45.992C108.45 46.952 106.418 47.432 104.306 47.432C102.194 47.432 100.146 46.92 98.1623 45.896C96.1783 44.84 94.4983 43.304 93.1223 41.288C91.7783 39.24 91.1063 36.936 91.1063 34.376ZM101.138 37.832C102.162 38.6 103.202 38.984 104.258 38.984C105.314 38.984 106.37 38.584 107.426 37.784C108.482 36.984 109.01 35.8 109.01 34.232C109.01 32.664 108.514 31.496 107.522 30.728C106.53 29.96 105.458 29.576 104.306 29.576C103.154 29.576 102.082 29.976 101.09 30.776C100.098 31.576 99.6023 32.76 99.6023 34.328C99.6023 35.864 100.114 37.032 101.138 37.832ZM134.624 21.8C137.824 21.8 140.48 23.016 142.592 25.448C144.736 27.88 145.807 30.856 145.807 34.376V42.824C145.807 43.56 145.776 44.12 145.712 44.504C145.68 44.856 145.536 45.272 145.28 45.752C144.864 46.584 143.632 47 141.584 47C139.632 47 138.416 46.584 137.936 45.752C137.68 45.272 137.52 44.84 137.456 44.456C137.424 44.072 137.408 43.496 137.408 42.728V34.328C137.408 33.016 137.04 31.992 136.304 31.256C135.568 30.52 134.624 30.152 133.472 30.152C132.352 30.152 131.36 30.504 130.496 31.208C129.632 31.88 129.136 32.648 129.008 33.512V42.824C129.008 43.56 128.976 44.12 128.912 44.504C128.88 44.856 128.736 45.272 128.48 45.752C128.064 46.584 126.832 47 124.784 47C122.768 47 121.536 46.568 121.088 45.704C120.864 45.224 120.72 44.808 120.656 44.456C120.624 44.104 120.608 43.544 120.608 42.776V14.072C120.608 13.336 120.624 12.792 120.656 12.44C120.72 12.056 120.864 11.64 121.088 11.192C121.536 10.328 122.784 9.896 124.832 9.896C126.848 9.896 128.064 10.328 128.48 11.192C128.736 11.672 128.88 12.104 128.912 12.488C128.976 12.84 129.008 13.384 129.008 14.12V24.728C130.608 22.776 132.48 21.8 134.624 21.8ZM174.054 31.352C174.054 33.304 173.558 34.76 172.566 35.72C171.606 36.648 170.534 37.112 169.35 37.112H157.974C157.974 38.008 158.502 38.76 159.558 39.368C160.614 39.976 161.67 40.28 162.726 40.28C164.582 40.28 166.038 40.088 167.094 39.704L167.622 39.512C168.39 39.16 169.03 38.984 169.542 38.984C170.566 38.984 171.446 39.704 172.182 41.144C172.598 42.008 172.806 42.744 172.806 43.352C172.806 46.2 169.398 47.624 162.582 47.624C160.214 47.624 158.102 47.224 156.246 46.424C154.422 45.592 152.998 44.504 151.974 43.16C149.958 40.568 148.95 37.672 148.95 34.472C148.95 30.44 150.246 27.224 152.838 24.824C155.462 22.392 158.726 21.176 162.63 21.176C167.078 21.176 170.342 22.744 172.422 25.88C173.51 27.544 174.054 29.368 174.054 31.352ZM163.926 32.744C165.142 32.744 165.75 32.232 165.75 31.208C165.75 30.472 165.462 29.88 164.886 29.432C164.342 28.984 163.542 28.76 162.486 28.76C161.462 28.76 160.438 29.192 159.414 30.056C158.39 30.888 157.878 31.784 157.878 32.744H163.926ZM177.186 14.024C177.186 13.288 177.202 12.744 177.234 12.392C177.298 12.008 177.442 11.576 177.666 11.096C178.114 10.232 179.362 9.8 181.41 9.8C183.362 9.8 184.578 10.232 185.058 11.096C185.314 11.576 185.458 12.008 185.49 12.392C185.554 12.776 185.586 13.336 185.586 14.072V36.296C185.586 37.448 185.682 38.184 185.874 38.504C186.066 38.792 186.482 38.936 187.122 38.936C187.794 38.936 188.242 38.968 188.466 39.032C188.69 39.064 188.962 39.192 189.282 39.416C189.922 39.832 190.242 40.968 190.242 42.824C190.242 44.84 189.922 46.072 189.282 46.52C188.45 47.096 186.466 47.192 183.33 46.808C180.866 46.488 179.266 45.672 178.53 44.36C177.634 42.792 177.186 40.296 177.186 36.872V14.024ZM192.889 53.864V25.832C192.889 25.096 192.905 24.552 192.937 24.2C193.001 23.848 193.145 23.448 193.369 23C193.817 22.136 194.889 21.704 196.585 21.704C198.281 21.704 199.417 21.928 199.993 22.376C200.601 22.792 200.953 23.416 201.049 24.248C202.265 22.584 204.169 21.752 206.761 21.752C209.385 21.752 211.865 22.984 214.201 25.448C216.537 27.912 217.705 30.776 217.705 34.04C217.705 37.304 216.537 40.168 214.201 42.632C211.897 45.096 209.433 46.328 206.809 46.328C204.185 46.328 202.281 45.592 201.097 44.12V53.816C201.097 54.552 201.065 55.096 201.001 55.448C200.969 55.8 200.825 56.2 200.569 56.648C200.345 57.128 199.945 57.464 199.369 57.656C198.793 57.848 198.009 57.944 197.017 57.944C196.025 57.944 195.225 57.848 194.617 57.656C194.041 57.464 193.625 57.144 193.369 56.696C193.145 56.248 193.001 55.848 192.937 55.496C192.905 55.144 192.889 54.6 192.889 53.864ZM202.393 31.256C201.657 32.12 201.289 33.064 201.289 34.088C201.289 35.112 201.657 36.056 202.393 36.92C203.161 37.752 204.121 38.168 205.273 38.168C206.457 38.168 207.449 37.752 208.249 36.92C209.081 36.088 209.497 35.144 209.497 34.088C209.497 33.032 209.113 32.088 208.345 31.256C207.577 30.392 206.569 29.96 205.321 29.96C204.105 29.96 203.129 30.392 202.393 31.256ZM228.266 39.08C228.81 39.624 229.082 40.744 229.082 42.44V42.632C229.082 43.4 229.05 43.976 228.986 44.36C228.954 44.712 228.794 45.144 228.506 45.656C228.026 46.584 226.81 47.048 224.858 47.048C222.938 47.048 221.658 46.744 221.018 46.136C220.41 45.528 220.106 44.376 220.106 42.68V42.488C220.106 41.752 220.122 41.192 220.154 40.808C220.218 40.424 220.378 39.992 220.634 39.512C221.114 38.552 222.314 38.072 224.234 38.072C226.186 38.072 227.53 38.408 228.266 39.08Z" fill="#FC8686"/>
</svg>
